<?xml version="1.0" standalone="no"?>
<!DOCTYPE svg PUBLIC "-//W3C//DTD SVG 20010904//EN" "http://www.w3.org/TR/2001/REC-SVG-20010904/DTD/svg10.dtd">
<svg version="1.0" xmlns="http://www.w3.org/2000/svg"
    width="1464.000000pt" height="400.000000pt" viewBox="0 0 1464.000000 400.000000"
    preserveAspectRatio="xMidYMid meet">

    <g transform="translate(0.000000,400.000000) scale(0.100000,-0.100000)"
        fill="#ffffff" stroke="none">
        <path
            d="M490 1525 l0 -1145 795 0 795 0 32 44 c105 139 213 282 219 286 3 3
50 64 104 135 55 72 126 166 159 210 82 108 98 125 112 125 6 0 31 -26 55 -58
23 -31 45 -59 49 -62 3 -3 17 -21 30 -40 13 -19 27 -37 30 -40 3 -3 17 -21 32
-42 15 -20 33 -42 41 -50 7 -7 39 -49 72 -93 32 -44 62 -82 65 -85 3 -3 57
-72 120 -155 135 -178 132 -175 165 -175 l26 0 -32 45 c-18 24 -39 52 -48 62
-9 10 -42 53 -75 97 -32 43 -64 86 -72 95 -23 28 -108 136 -134 171 -14 18
-29 38 -35 44 -5 6 -37 47 -70 91 -34 44 -89 117 -124 162 -42 55 -60 87 -54
96 14 24 217 291 241 317 12 14 22 28 22 31 0 4 16 24 35 45 19 22 35 43 35
47 0 4 9 18 21 30 11 12 53 66 92 121 40 54 87 115 104 135 18 20 33 42 33 49
0 16 -35 15 -52 -2 -17 -18 -69 -84 -88 -112 -19 -29 -185 -249 -222 -294 -34
-41 -36 -44 -68 -90 -13 -19 -33 -44 -43 -55 -10 -11 -44 -55 -74 -98 -31 -43
-62 -81 -71 -84 -18 -7 -13 -13 -157 182 -36 50 -72 98 -80 108 -8 9 -15 19
-15 22 0 4 -8 15 -52 67 -10 12 -18 24 -18 27 0 3 -10 17 -23 31 -13 14 -38
48 -57 75 -18 28 -53 74 -77 103 -24 30 -43 57 -43 60 0 4 -14 22 -31 40 -29
31 -69 43 -69 21 0 -10 186 -263 215 -292 8 -9 15 -18 15 -22 0 -3 22 -34 48
-68 149 -192 302 -399 302 -408 0 -6 -10 -23 -22 -38 -13 -15 -34 -42 -48 -61
-14 -18 -30 -38 -35 -44 -6 -6 -22 -27 -35 -46 -13 -19 -27 -37 -30 -40 -6 -5
-143 -183 -220 -285 -25 -33 -53 -69 -62 -80 -9 -11 -49 -62 -90 -113 l-73
-94 -750 1 c-412 1 -753 5 -757 9 -5 5 -7 255 -6 558 l3 549 687 3 688 2 0 25
0 25 -688 2 -687 3 -3 508 -2 507 735 0 735 0 0 25 0 25 -760 0 -760 0 0
-1145z" />
        <path
            d="M13485 2120 c-161 -32 -271 -106 -341 -230 -60 -105 -62 -293 -5
-416 63 -134 175 -217 456 -335 120 -50 180 -93 206 -146 37 -77 12 -145 -72
-193 -39 -22 -56 -25 -139 -25 -75 0 -105 5 -140 21 -52 24 -139 99 -159 138
-8 14 -20 26 -27 26 -7 0 -52 -23 -101 -51 -48 -29 -105 -61 -125 -72 -21 -12
-38 -25 -38 -30 0 -23 66 -111 126 -166 230 -215 677 -230 889 -30 31 29 64
67 75 84 38 61 60 152 60 245 0 192 -82 327 -260 429 -39 22 -179 91 -186 91
-3 0 -51 22 -107 48 -112 53 -150 88 -167 153 -9 33 -8 46 8 83 27 59 72 86
147 86 73 0 116 -21 168 -81 23 -27 45 -49 49 -49 7 0 50 26 201 123 26 17 47
34 47 39 0 33 -128 171 -186 201 -99 50 -279 77 -379 57z" />
        <path
            d="M12485 2098 c-3 -7 -6 -283 -7 -613 -3 -565 -4 -602 -22 -638 -47
-95 -207 -103 -290 -13 -21 22 -42 51 -47 64 -5 12 -15 25 -24 28 -8 4 -63
-23 -127 -61 -158 -95 -151 -87 -120 -143 37 -65 127 -152 197 -188 89 -47
197 -68 314 -61 244 14 387 126 441 344 19 78 20 108 18 685 l-3 603 -163 3
c-124 2 -164 0 -167 -10z" />
        <path
            d="M4135 2048 c-22 -5 -52 -11 -68 -15 -15 -3 -30 -9 -33 -14 -3 -5 -14
-9 -25 -9 -10 0 -19 -4 -19 -10 0 -5 -7 -10 -15 -10 -26 0 -118 -66 -177 -127
-59 -61 -137 -175 -139 -202 -1 -23 -32 -74 -44 -72 -6 0 -12 87 -15 218 -5
210 -6 218 -25 218 -20 0 -20 -8 -23 -1013 l-2 -1012 25 0 25 0 0 398 c0 218
4 403 9 411 7 11 15 2 31 -35 12 -27 27 -60 33 -74 22 -49 86 -136 134 -182
134 -130 342 -194 547 -169 243 31 404 148 519 376 152 302 137 759 -35 1031
-17 27 -65 83 -107 124 -85 83 -178 136 -292 164 -71 18 -237 20 -304 4z m297
-49 c122 -26 242 -104 322 -209 166 -219 220 -557 139 -880 -9 -36 -19 -72
-23 -80 -70 -146 -102 -199 -150 -249 -88 -92 -150 -132 -265 -172 -61 -21
-315 -18 -380 5 -61 21 -153 65 -180 86 -26 20 -125 119 -150 150 -22 27 -77
137 -93 185 -68 205 -70 485 -6 684 18 55 69 164 99 209 42 63 149 166 198
191 15 8 27 18 27 23 0 4 6 8 13 8 8 0 29 7 47 16 18 9 56 22 84 29 65 16 248
18 318 4z" />
        <path
            d="M5840 2053 c-136 -21 -278 -96 -359 -190 -23 -27 -62 -91 -88 -143
l-48 -95 -5 200 c-5 198 -5 200 -27 203 l-23 3 0 -825 0 -826 24 0 25 0 4 558
c4 624 0 589 85 762 38 79 148 201 207 231 17 9 39 20 50 26 65 34 134 52 231
57 70 4 79 7 82 25 3 20 -1 21 -65 20 -37 -1 -79 -3 -93 -6z" />
        <path
            d="M6640 2054 c-116 -23 -234 -79 -322 -153 -55 -46 -138 -143 -138
-160 0 -5 -4 -11 -8 -13 -12 -4 -68 -124 -93 -196 -61 -178 -63 -458 -4 -687
23 -92 97 -233 155 -297 108 -120 229 -178 416 -199 151 -17 304 6 434 64 102
45 221 147 260 223 8 16 17 31 20 34 17 17 65 145 75 200 4 19 9 43 11 53 4
13 -1 17 -20 17 -20 0 -27 -6 -31 -27 -16 -75 -30 -121 -47 -157 -10 -22 -18
-46 -18 -53 0 -7 -4 -13 -9 -13 -5 0 -14 -13 -20 -28 -7 -16 -42 -58 -79 -94
-58 -57 -99 -84 -212 -138 -51 -24 -137 -35 -275 -35 -162 0 -185 5 -300 60
-210 101 -342 347 -348 649 l-2 91 690 2 690 3 3 52 c5 87 -30 276 -68 363 -4
11 -19 44 -31 73 -12 28 -26 52 -31 52 -4 0 -8 6 -8 13 0 6 -14 28 -30 47 -16
19 -30 38 -30 42 0 15 -146 124 -202 151 -31 15 -80 34 -110 43 -53 14 -271
27 -318 18z m270 -56 c75 -15 208 -80 264 -129 130 -115 213 -289 238 -497 6
-54 8 -106 5 -116 -6 -15 -59 -16 -669 -14 l-663 3 2 64 c4 131 53 284 131
406 51 80 154 185 200 206 18 8 32 17 32 21 0 5 9 8 20 8 11 0 20 4 20 8 0 13
121 45 195 51 84 8 151 4 225 -11z" />
        <path
            d="M8140 2054 c-182 -32 -317 -122 -379 -254 -21 -46 -26 -71 -27 -148
-3 -170 52 -271 176 -325 19 -9 53 -23 75 -33 22 -9 53 -21 70 -25 16 -4 66
-17 110 -29 44 -12 127 -33 185 -47 310 -74 414 -128 488 -253 25 -41 27 -54
27 -150 0 -94 -3 -110 -27 -155 -53 -102 -180 -192 -318 -226 -73 -19 -347
-19 -415 -1 -106 29 -178 67 -245 129 -89 82 -130 174 -145 326 -7 62 -9 67
-31 67 -28 0 -28 -1 -13 -107 19 -145 75 -264 157 -334 186 -159 601 -194 849
-72 167 82 254 230 240 409 -12 166 -118 283 -311 346 -34 10 -146 41 -251 68
-104 27 -208 55 -230 61 -210 61 -294 119 -330 229 -24 72 -17 198 14 260 23
48 83 120 98 120 5 0 18 8 29 18 25 23 56 37 134 62 52 16 92 21 195 21 191 0
302 -28 400 -102 95 -72 140 -157 153 -289 6 -57 10 -65 30 -68 20 -3 22 0 22
50 -1 71 -15 128 -51 203 -32 67 -95 137 -140 157 -16 7 -29 16 -29 20 0 5 -9
8 -19 8 -11 0 -21 4 -23 8 -1 4 -37 19 -78 32 -62 20 -100 24 -220 26 -80 1
-156 0 -170 -2z" />
        <path
            d="M9635 2054 c-90 -21 -118 -31 -173 -57 -83 -39 -163 -113 -197 -182
-28 -59 -47 -158 -39 -209 11 -73 28 -136 36 -136 4 0 8 -7 8 -16 0 -24 92
-107 141 -128 24 -10 60 -26 79 -34 33 -15 134 -44 210 -62 60 -14 343 -88
375 -98 114 -36 223 -119 266 -202 20 -38 24 -60 24 -145 0 -89 -3 -106 -27
-151 -33 -63 -118 -142 -189 -176 -111 -53 -161 -62 -339 -62 -211 0 -281 18
-410 105 -69 46 -98 79 -132 149 -33 68 -45 115 -54 208 -6 68 -8 72 -32 72
l-25 0 8 -72 c15 -162 65 -278 151 -357 95 -87 205 -130 391 -152 123 -14 276
-1 390 36 239 75 368 290 309 514 -22 81 -89 169 -157 205 -13 7 -40 22 -59
32 -19 11 -55 26 -80 33 -25 7 -56 17 -70 22 -28 9 -334 89 -420 110 -30 7
-59 16 -64 21 -6 4 -17 8 -27 8 -33 0 -141 65 -184 111 -52 55 -69 107 -68
204 0 109 24 164 106 245 44 44 121 84 214 109 62 17 295 15 371 -3 217 -51
340 -192 355 -406 2 -28 6 -36 26 -38 24 -4 24 -3 18 67 -18 216 -138 355
-358 417 -53 15 -331 28 -374 18z" />
    </g>
</svg>